<svg width="235" height="39" viewBox="0 0 235 39" fill="none" xmlns="http://www.w3.org/2000/svg">
<mask id="mask0" mask-type="alpha" maskUnits="userSpaceOnUse" x="0" y="0" width="234" height="39">
<rect width="234" height="39" fill="#C4C4C4"/>
</mask>
<g mask="url(#mask0)">
<path d="M10.3852 32.5H15.5V7.5H10.3852L11.9295 8.78194L12.393 9.16667L11.9295 9.55139L9.78284 11.3333L11.9295 13.1153L12.393 13.5L11.9295 13.8847L9.78284 15.6667L11.9295 17.4486L12.393 17.8333L11.9295 18.2181L9.78284 20L11.9295 21.7819L12.393 22.1667L11.9295 22.5514L9.78284 24.3333L11.9295 26.1153L12.393 26.5L11.9295 26.8847L9.78284 28.6667L11.9295 30.4486L12.393 30.8333L11.9295 31.2181L10.3852 32.5Z" fill="#E32140" stroke="#E32140"/>
<path d="M35.306 12.8965C35.192 13.9447 34.816 14.7467 34.178 15.3027C33.544 15.8587 32.699 16.1367 31.6416 16.1367C30.9033 16.1367 30.2493 15.9521 29.6797 15.583C29.1146 15.2139 28.6771 14.6921 28.3672 14.0176C28.0573 13.3385 27.9001 12.5638 27.8955 11.6934V10.4014C27.8955 9.51725 28.0505 8.7334 28.3604 8.0498C28.6702 7.36621 29.1146 6.83984 29.6934 6.4707C30.2767 6.09701 30.9466 5.91016 31.7031 5.91016C32.77 5.91016 33.61 6.19954 34.226 6.77832C34.845 7.35254 35.205 8.14779 35.306 9.16406H34.458C34.248 7.47331 33.33 6.62793 31.7031 6.62793C30.8008 6.62793 30.0807 6.96517 29.543 7.63965C29.0098 8.31413 28.7432 9.24609 28.7432 10.4355V11.6523C28.7432 12.8008 29.0029 13.7168 29.5225 14.4004C30.0465 15.084 30.7529 15.4258 31.6416 15.4258C32.521 15.4258 33.184 15.2161 33.631 14.7969C34.077 14.373 34.353 13.7396 34.458 12.8965H35.306ZM42.839 16H42.019V9.30762H38.033V16H37.213V8.60352H42.839V16ZM47.897 16.1367C47.269 16.1367 46.699 15.9818 46.188 15.6719C45.683 15.362 45.288 14.9313 45.006 14.3799C44.723 13.8239 44.582 13.2018 44.582 12.5137V12.2197C44.582 11.5088 44.719 10.8685 44.992 10.2988C45.27 9.72917 45.655 9.28255 46.147 8.95898C46.64 8.63086 47.173 8.4668 47.747 8.4668C48.645 8.4668 49.356 8.77441 49.88 9.38965C50.409 10.0003 50.673 10.8366 50.673 11.8984V12.3564H45.396V12.5137C45.396 13.3522 45.635 14.0518 46.113 14.6123C46.596 15.1683 47.202 15.4463 47.932 15.4463C48.369 15.4463 48.754 15.3665 49.087 15.207C49.424 15.0475 49.729 14.7923 50.003 14.4414L50.516 14.8311C49.914 15.7015 49.041 16.1367 47.897 16.1367ZM47.747 9.16406C47.132 9.16406 46.612 9.38965 46.188 9.84082C45.769 10.292 45.514 10.8981 45.423 11.6592H49.859V11.5703C49.837 10.8594 49.634 10.2806 49.251 9.83398C48.868 9.38737 48.367 9.16406 47.747 9.16406ZM52.32 8.60352H53.141V15.3096H57.126V8.60352H57.946V15.3096H58.698L58.637 18.1943H57.885V16H52.32V8.60352ZM65.097 8.60352H65.917V16H65.097V9.92285L61.104 16H60.291V8.60352H61.104V14.6875L65.097 8.60352ZM72.78 16C72.698 15.7676 72.646 15.4235 72.623 14.9678C72.336 15.3415 71.969 15.6309 71.522 15.8359C71.08 16.0365 70.611 16.1367 70.114 16.1367C69.403 16.1367 68.827 15.9385 68.385 15.542C67.947 15.1455 67.729 14.6442 67.729 14.0381C67.729 13.318 68.027 12.7484 68.624 12.3291C69.226 11.9098 70.062 11.7002 71.133 11.7002H72.616V10.8594C72.616 10.3307 72.452 9.91602 72.124 9.61523C71.8 9.3099 71.326 9.15723 70.702 9.15723C70.132 9.15723 69.661 9.30306 69.287 9.59473C68.913 9.88639 68.727 10.2373 68.727 10.6475L67.906 10.6406C67.906 10.0527 68.18 9.5446 68.727 9.11621C69.273 8.68327 69.946 8.4668 70.743 8.4668C71.568 8.4668 72.217 8.67415 72.691 9.08887C73.17 9.49902 73.416 10.0732 73.43 10.8115V14.3115C73.43 15.027 73.505 15.5625 73.655 15.918V16H72.78ZM70.21 15.4121C70.757 15.4121 71.244 15.2799 71.673 15.0156C72.106 14.7513 72.42 14.3981 72.616 13.9561V12.3291H71.153C70.338 12.3382 69.7 12.4886 69.239 12.7803C68.779 13.0674 68.549 13.4639 68.549 13.9697C68.549 14.3844 68.701 14.7285 69.007 15.002C69.317 15.2754 69.718 15.4121 70.21 15.4121ZM81.305 8.60352V16H80.484V9.30762H77.456L77.326 12.0762C77.271 13.1016 77.169 13.8854 77.019 14.4277C76.868 14.9655 76.645 15.362 76.349 15.6172C76.052 15.8724 75.658 16 75.166 16H74.852V15.2754L75.104 15.2617C75.574 15.2526 75.911 15.0247 76.116 14.5781C76.321 14.1315 76.456 13.334 76.52 12.1855L76.67 8.60352H81.305ZM88.366 8.60352H89.187V16H88.366V9.92285L84.374 16H83.561V8.60352H84.374V14.6875L88.366 8.60352ZM95.715 10.5586C95.715 10.112 95.549 9.7679 95.216 9.52637C94.883 9.28483 94.425 9.16406 93.842 9.16406C93.313 9.16406 92.86 9.30078 92.481 9.57422C92.108 9.8431 91.921 10.1849 91.921 10.5996H91.107C91.107 9.98438 91.369 9.47624 91.894 9.0752C92.422 8.67415 93.072 8.47363 93.842 8.47363C94.689 8.47363 95.35 8.65592 95.824 9.02051C96.298 9.38509 96.535 9.90234 96.535 10.5723C96.535 10.9277 96.426 11.249 96.207 11.5361C95.988 11.8232 95.669 12.0465 95.25 12.2061C96.198 12.4658 96.672 13.0537 96.672 13.9697C96.672 14.6351 96.414 15.1615 95.899 15.5488C95.384 15.9362 94.701 16.1299 93.849 16.1299C93.024 16.1299 92.34 15.9225 91.798 15.5078C91.256 15.0931 90.984 14.5508 90.984 13.8809H91.805C91.805 14.3275 92.001 14.7012 92.393 15.002C92.789 15.2982 93.274 15.4463 93.849 15.4463C94.473 15.4463 94.961 15.3164 95.312 15.0566C95.667 14.7923 95.845 14.4346 95.845 13.9834C95.845 13.4867 95.683 13.1289 95.359 12.9102C95.036 12.6914 94.541 12.582 93.876 12.582H92.748V11.8711H94.013C95.147 11.8438 95.715 11.4062 95.715 10.5586ZM103.337 8.60352H104.157V16H103.337V9.92285L99.345 16H98.531V8.60352H99.345V14.6875L103.337 8.60352ZM112.299 12.377C112.299 13.5299 112.044 14.446 111.533 15.125C111.023 15.7995 110.339 16.1367 109.482 16.1367C108.471 16.1367 107.696 15.7812 107.158 15.0703V18.8438H106.345V8.60352H107.104L107.145 9.64941C107.678 8.861 108.45 8.4668 109.462 8.4668C110.346 8.4668 111.039 8.80176 111.54 9.47168C112.046 10.1416 112.299 11.0713 112.299 12.2607V12.377ZM111.479 12.2334C111.479 11.29 111.285 10.5449 110.897 9.99805C110.51 9.45117 109.97 9.17773 109.277 9.17773C108.776 9.17773 108.345 9.2985 107.985 9.54004C107.625 9.78158 107.35 10.1325 107.158 10.5928V14.1406C107.354 14.5645 107.634 14.888 107.999 15.1113C108.364 15.3346 108.794 15.4463 109.291 15.4463C109.979 15.4463 110.515 15.1729 110.897 14.626C111.285 14.0745 111.479 13.277 111.479 12.2334ZM113.666 12.1924C113.666 11.4814 113.803 10.8411 114.076 10.2715C114.354 9.70182 114.744 9.25977 115.245 8.94531C115.751 8.6263 116.323 8.4668 116.961 8.4668C117.945 8.4668 118.743 8.81315 119.354 9.50586C119.964 10.194 120.27 11.1077 120.27 12.2471V12.418C120.27 13.1335 120.131 13.7783 119.853 14.3525C119.579 14.9222 119.192 15.362 118.69 15.6719C118.189 15.9818 117.617 16.1367 116.975 16.1367C115.995 16.1367 115.197 15.7926 114.582 15.1045C113.971 14.4118 113.666 13.4958 113.666 12.3564V12.1924ZM114.486 12.418C114.486 13.3021 114.714 14.029 115.17 14.5986C115.63 15.1637 116.232 15.4463 116.975 15.4463C117.713 15.4463 118.31 15.1637 118.766 14.5986C119.226 14.029 119.456 13.2793 119.456 12.3496V12.1924C119.456 11.6273 119.351 11.11 119.142 10.6406C118.932 10.1712 118.638 9.80892 118.26 9.55371C117.882 9.29395 117.449 9.16406 116.961 9.16406C116.232 9.16406 115.637 9.45117 115.177 10.0254C114.716 10.5951 114.486 11.3424 114.486 12.2676V12.418ZM122.054 16V8.60352H124.768C125.706 8.60352 126.426 8.77214 126.928 9.10938C127.429 9.44206 127.68 9.93197 127.68 10.5791C127.68 10.9482 127.568 11.2786 127.345 11.5703C127.121 11.8574 126.796 12.0671 126.367 12.1992C126.85 12.2904 127.238 12.4977 127.529 12.8213C127.826 13.1449 127.974 13.5208 127.974 13.9492C127.974 14.6009 127.732 15.1068 127.249 15.4668C126.771 15.8223 126.091 16 125.212 16H122.054ZM122.867 12.5957V15.3164H125.239C125.854 15.3164 126.328 15.1979 126.661 14.9609C126.994 14.724 127.16 14.3822 127.16 13.9355C127.16 13.5254 126.994 13.1995 126.661 12.958C126.328 12.7165 125.854 12.5957 125.239 12.5957H122.867ZM122.867 11.9121H124.938C126.224 11.8939 126.866 11.4564 126.866 10.5996C126.866 10.1484 126.688 9.82031 126.333 9.61523C125.982 9.4056 125.46 9.30078 124.768 9.30078H122.867V11.9121ZM134.468 16C134.386 15.7676 134.333 15.4235 134.311 14.9678C134.023 15.3415 133.657 15.6309 133.21 15.8359C132.768 16.0365 132.299 16.1367 131.802 16.1367C131.091 16.1367 130.514 15.9385 130.072 15.542C129.635 15.1455 129.416 14.6442 129.416 14.0381C129.416 13.318 129.715 12.7484 130.312 12.3291C130.913 11.9098 131.749 11.7002 132.82 11.7002H134.304V10.8594C134.304 10.3307 134.14 9.91602 133.812 9.61523C133.488 9.3099 133.014 9.15723 132.39 9.15723C131.82 9.15723 131.348 9.30306 130.975 9.59473C130.601 9.88639 130.414 10.2373 130.414 10.6475L129.594 10.6406C129.594 10.0527 129.867 9.5446 130.414 9.11621C130.961 8.68327 131.633 8.4668 132.431 8.4668C133.256 8.4668 133.905 8.67415 134.379 9.08887C134.857 9.49902 135.104 10.0732 135.117 10.8115V14.3115C135.117 15.027 135.192 15.5625 135.343 15.918V16H134.468ZM131.897 15.4121C132.444 15.4121 132.932 15.2799 133.36 15.0156C133.793 14.7513 134.108 14.3981 134.304 13.9561V12.3291H132.841C132.025 12.3382 131.387 12.4886 130.927 12.7803C130.466 13.0674 130.236 13.4639 130.236 13.9697C130.236 14.3844 130.389 14.7285 130.694 15.002C131.004 15.2754 131.405 15.4121 131.897 15.4121ZM142.985 16H142.165V12.6094H138.18V16H137.359V8.60352H138.18V11.9189H142.165V8.60352H142.985V16ZM150.86 16H150.04V12.6094H146.055V16H145.234V8.60352H146.055V11.9189H150.04V8.60352H150.86V16ZM153.957 11.29H156.09C156.637 11.29 157.115 11.3903 157.525 11.5908C157.94 11.7868 158.252 12.0602 158.462 12.4111C158.676 12.762 158.783 13.1699 158.783 13.6348C158.783 14.3503 158.537 14.9245 158.045 15.3574C157.557 15.7858 156.896 16 156.062 16H153.144V8.60352H153.957V11.29ZM153.957 11.9873V15.3096H156.076C156.664 15.3096 157.124 15.1615 157.457 14.8652C157.794 14.569 157.963 14.1634 157.963 13.6484C157.963 13.1562 157.799 12.7598 157.471 12.459C157.147 12.1536 156.703 11.9964 156.138 11.9873H153.957ZM161.292 16H160.472V8.60352H161.292V16ZM168.429 8.60352H169.249V16H168.429V9.92285L164.437 16H163.623V8.60352H164.437V14.6875L168.429 8.60352ZM168.388 5.9375C168.388 6.46159 168.208 6.88542 167.848 7.20898C167.492 7.53255 167.014 7.69434 166.412 7.69434C165.82 7.69434 165.341 7.53483 164.977 7.21582C164.617 6.89225 164.437 6.46615 164.437 5.9375H165.134C165.134 6.31576 165.245 6.60514 165.469 6.80566C165.697 7.00618 166.011 7.10645 166.412 7.10645C166.813 7.10645 167.125 7.00163 167.349 6.79199C167.576 6.58236 167.69 6.29753 167.69 5.9375H168.388ZM178.942 14.8926L181.882 8.60352H182.894V16H182.073V9.92969L179.229 16H178.648L175.75 9.79297V16H174.937V8.60352H176.01L178.942 14.8926ZM189.757 16C189.675 15.7676 189.622 15.4235 189.6 14.9678C189.312 15.3415 188.946 15.6309 188.499 15.8359C188.057 16.0365 187.588 16.1367 187.091 16.1367C186.38 16.1367 185.803 15.9385 185.361 15.542C184.924 15.1455 184.705 14.6442 184.705 14.0381C184.705 13.318 185.004 12.7484 185.601 12.3291C186.202 11.9098 187.038 11.7002 188.109 11.7002H189.593V10.8594C189.593 10.3307 189.429 9.91602 189.101 9.61523C188.777 9.3099 188.303 9.15723 187.679 9.15723C187.109 9.15723 186.637 9.30306 186.264 9.59473C185.89 9.88639 185.703 10.2373 185.703 10.6475L184.883 10.6406C184.883 10.0527 185.156 9.5446 185.703 9.11621C186.25 8.68327 186.922 8.4668 187.72 8.4668C188.545 8.4668 189.194 8.67415 189.668 9.08887C190.146 9.49902 190.393 10.0732 190.406 10.8115V14.3115C190.406 15.027 190.481 15.5625 190.632 15.918V16H189.757ZM187.187 15.4121C187.733 15.4121 188.221 15.2799 188.649 15.0156C189.082 14.7513 189.397 14.3981 189.593 13.9561V12.3291H188.13C187.314 12.3382 186.676 12.4886 186.216 12.7803C185.756 13.0674 185.525 13.4639 185.525 13.9697C185.525 14.3844 185.678 14.7285 185.983 15.002C186.293 15.2754 186.694 15.4121 187.187 15.4121ZM197.201 9.30762H193.462V16H192.642V8.60352H197.201V9.30762ZM203.169 16C203.087 15.7676 203.035 15.4235 203.012 14.9678C202.725 15.3415 202.358 15.6309 201.911 15.8359C201.469 16.0365 201 16.1367 200.503 16.1367C199.792 16.1367 199.215 15.9385 198.773 15.542C198.336 15.1455 198.117 14.6442 198.117 14.0381C198.117 13.318 198.416 12.7484 199.013 12.3291C199.614 11.9098 200.451 11.7002 201.521 11.7002H203.005V10.8594C203.005 10.3307 202.841 9.91602 202.513 9.61523C202.189 9.3099 201.715 9.15723 201.091 9.15723C200.521 9.15723 200.049 9.30306 199.676 9.59473C199.302 9.88639 199.115 10.2373 199.115 10.6475L198.295 10.6406C198.295 10.0527 198.568 9.5446 199.115 9.11621C199.662 8.68327 200.334 8.4668 201.132 8.4668C201.957 8.4668 202.606 8.67415 203.08 9.08887C203.559 9.49902 203.805 10.0732 203.818 10.8115V14.3115C203.818 15.027 203.894 15.5625 204.044 15.918V16H203.169ZM200.599 15.4121C201.146 15.4121 201.633 15.2799 202.062 15.0156C202.494 14.7513 202.809 14.3981 203.005 13.9561V12.3291H201.542C200.726 12.3382 200.088 12.4886 199.628 12.7803C199.168 13.0674 198.938 13.4639 198.938 13.9697C198.938 14.3844 199.09 14.7285 199.396 15.002C199.705 15.2754 200.106 15.4121 200.599 15.4121ZM210.34 10.5586C210.34 10.112 210.174 9.7679 209.841 9.52637C209.508 9.28483 209.05 9.16406 208.467 9.16406C207.938 9.16406 207.485 9.30078 207.106 9.57422C206.733 9.8431 206.546 10.1849 206.546 10.5996H205.732C205.732 9.98438 205.994 9.47624 206.519 9.0752C207.047 8.67415 207.697 8.47363 208.467 8.47363C209.314 8.47363 209.975 8.65592 210.449 9.02051C210.923 9.38509 211.16 9.90234 211.16 10.5723C211.16 10.9277 211.051 11.249 210.832 11.5361C210.613 11.8232 210.294 12.0465 209.875 12.2061C210.823 12.4658 211.297 13.0537 211.297 13.9697C211.297 14.6351 211.039 15.1615 210.524 15.5488C210.009 15.9362 209.326 16.1299 208.474 16.1299C207.649 16.1299 206.965 15.9225 206.423 15.5078C205.881 15.0931 205.609 14.5508 205.609 13.8809H206.43C206.43 14.3275 206.626 14.7012 207.018 15.002C207.414 15.2982 207.899 15.4463 208.474 15.4463C209.098 15.4463 209.586 15.3164 209.937 15.0566C210.292 14.7923 210.47 14.4346 210.47 13.9834C210.47 13.4867 210.308 13.1289 209.984 12.9102C209.661 12.6914 209.166 12.582 208.501 12.582H207.373V11.8711H208.638C209.772 11.8438 210.34 11.4062 210.34 10.5586ZM217.962 8.60352H218.782V16H217.962V9.92285L213.97 16H213.156V8.60352H213.97V14.6875L217.962 8.60352ZM226.657 16H225.837V12.6094H221.852V16H221.031V8.60352H221.852V11.9189H225.837V8.60352H226.657V16ZM32.161 31.8926L35.101 25.6035H36.112V33H35.292V26.9297L32.448 33H31.8672L28.9688 26.793V33H28.1553V25.6035H29.2285L32.161 31.8926ZM41.171 33.1367C40.542 33.1367 39.972 32.9818 39.462 32.6719C38.956 32.362 38.562 31.9313 38.279 31.3799C37.997 30.8239 37.855 30.2018 37.855 29.5137V29.2197C37.855 28.5088 37.992 27.8685 38.266 27.2988C38.544 26.7292 38.929 26.2826 39.421 25.959C39.913 25.6309 40.446 25.4668 41.021 25.4668C41.918 25.4668 42.629 25.7744 43.153 26.3896C43.682 27.0003 43.946 27.8366 43.946 28.8984V29.3564H38.669V29.5137C38.669 30.3522 38.908 31.0518 39.387 31.6123C39.87 32.1683 40.476 32.4463 41.205 32.4463C41.643 32.4463 42.028 32.3665 42.36 32.207C42.698 32.0475 43.003 31.7923 43.276 31.4414L43.789 31.8311C43.188 32.7015 42.315 33.1367 41.171 33.1367ZM41.021 26.1641C40.405 26.1641 39.886 26.3896 39.462 26.8408C39.043 27.292 38.787 27.8981 38.696 28.6592H43.133V28.5703C43.11 27.8594 42.907 27.2806 42.524 26.834C42.142 26.3874 41.64 26.1641 41.021 26.1641ZM50.769 26.3008H48.075V33H47.255V26.3008H44.664V25.6035H50.769V26.3008ZM56.675 33C56.593 32.7676 56.54 32.4235 56.518 31.9678C56.23 32.3415 55.864 32.6309 55.417 32.8359C54.975 33.0365 54.506 33.1367 54.009 33.1367C53.298 33.1367 52.721 32.9385 52.279 32.542C51.842 32.1455 51.623 31.6442 51.623 31.0381C51.623 30.318 51.922 29.7484 52.519 29.3291C53.12 28.9098 53.956 28.7002 55.027 28.7002H56.511V27.8594C56.511 27.3307 56.347 26.916 56.019 26.6152C55.695 26.3099 55.221 26.1572 54.597 26.1572C54.027 26.1572 53.555 26.3031 53.182 26.5947C52.808 26.8864 52.621 27.2373 52.621 27.6475L51.801 27.6406C51.801 27.0527 52.074 26.5446 52.621 26.1162C53.168 25.6833 53.84 25.4668 54.638 25.4668C55.463 25.4668 56.112 25.6742 56.586 26.0889C57.064 26.499 57.311 27.0732 57.324 27.8115V31.3115C57.324 32.027 57.399 32.5625 57.55 32.918V33H56.675ZM54.104 32.4121C54.651 32.4121 55.139 32.2799 55.567 32.0156C56 31.7513 56.315 31.3981 56.511 30.9561V29.3291H55.048C54.232 29.3382 53.594 29.4886 53.134 29.7803C52.674 30.0674 52.443 30.4639 52.443 30.9697C52.443 31.3844 52.596 31.7285 52.901 32.002C53.211 32.2754 53.612 32.4121 54.104 32.4121ZM65.199 25.6035V33H64.379V26.3076H61.351L61.221 29.0762C61.166 30.1016 61.063 30.8854 60.913 31.4277C60.763 31.9655 60.539 32.362 60.243 32.6172C59.947 32.8724 59.553 33 59.061 33H58.746V32.2754L58.999 32.2617C59.468 32.2526 59.806 32.0247 60.011 31.5781C60.216 31.1315 60.35 30.334 60.414 29.1855L60.564 25.6035H65.199ZM73.088 25.6035V33H72.268V26.3076H69.239L69.109 29.0762C69.055 30.1016 68.952 30.8854 68.802 31.4277C68.651 31.9655 68.428 32.362 68.132 32.6172C67.836 32.8724 67.441 33 66.949 33H66.635V32.2754L66.888 32.2617C67.357 32.2526 67.694 32.0247 67.899 31.5781C68.104 31.1315 68.239 30.334 68.303 29.1855L68.453 25.6035H73.088ZM74.838 29.1924C74.838 28.4814 74.975 27.8411 75.248 27.2715C75.526 26.7018 75.916 26.2598 76.417 25.9453C76.923 25.6263 77.495 25.4668 78.133 25.4668C79.117 25.4668 79.915 25.8132 80.525 26.5059C81.136 27.194 81.441 28.1077 81.441 29.2471V29.418C81.441 30.1335 81.302 30.7783 81.024 31.3525C80.751 31.9222 80.364 32.362 79.862 32.6719C79.361 32.9818 78.789 33.1367 78.146 33.1367C77.167 33.1367 76.369 32.7926 75.754 32.1045C75.143 31.4118 74.838 30.4958 74.838 29.3564V29.1924ZM75.658 29.418C75.658 30.3021 75.886 31.029 76.342 31.5986C76.802 32.1637 77.404 32.4463 78.146 32.4463C78.885 32.4463 79.482 32.1637 79.938 31.5986C80.398 31.029 80.628 30.2793 80.628 29.3496V29.1924C80.628 28.6273 80.523 28.11 80.313 27.6406C80.104 27.1712 79.81 26.8089 79.432 26.5537C79.053 26.2939 78.62 26.1641 78.133 26.1641C77.404 26.1641 76.809 26.4512 76.349 27.0254C75.888 27.5951 75.658 28.3424 75.658 29.2676V29.418ZM89.084 29.377C89.084 30.5299 88.829 31.446 88.318 32.125C87.808 32.7995 87.124 33.1367 86.268 33.1367C85.256 33.1367 84.481 32.7812 83.943 32.0703V35.8438H83.13V25.6035H83.889L83.93 26.6494C84.463 25.861 85.235 25.4668 86.247 25.4668C87.131 25.4668 87.824 25.8018 88.325 26.4717C88.831 27.1416 89.084 28.0713 89.084 29.2607V29.377ZM88.264 29.2334C88.264 28.29 88.07 27.5449 87.683 26.998C87.295 26.4512 86.755 26.1777 86.062 26.1777C85.561 26.1777 85.131 26.2985 84.771 26.54C84.41 26.7816 84.135 27.1325 83.943 27.5928V31.1406C84.139 31.5645 84.42 31.888 84.784 32.1113C85.149 32.3346 85.579 32.4463 86.076 32.4463C86.764 32.4463 87.3 32.1729 87.683 31.626C88.07 31.0745 88.264 30.277 88.264 29.2334ZM93.767 33.1367C93.138 33.1367 92.568 32.9818 92.058 32.6719C91.552 32.362 91.158 31.9313 90.875 31.3799C90.592 30.8239 90.451 30.2018 90.451 29.5137V29.2197C90.451 28.5088 90.588 27.8685 90.861 27.2988C91.139 26.7292 91.524 26.2826 92.017 25.959C92.509 25.6309 93.042 25.4668 93.616 25.4668C94.514 25.4668 95.225 25.7744 95.749 26.3896C96.278 27.0003 96.542 27.8366 96.542 28.8984V29.3564H91.265V29.5137C91.265 30.3522 91.504 31.0518 91.982 31.6123C92.465 32.1683 93.072 32.4463 93.801 32.4463C94.238 32.4463 94.623 32.3665 94.956 32.207C95.293 32.0475 95.599 31.7923 95.872 31.4414L96.385 31.8311C95.783 32.7015 94.91 33.1367 93.767 33.1367ZM93.616 26.1641C93.001 26.1641 92.481 26.3896 92.058 26.8408C91.638 27.292 91.383 27.8981 91.292 28.6592H95.729V28.5703C95.706 27.8594 95.503 27.2806 95.12 26.834C94.737 26.3874 94.236 26.1641 93.616 26.1641ZM103.788 29.582H102.804V33H101.983V29.582H101.006L98.271 33H97.232L100.295 29.2061L97.574 25.6035H98.565L100.992 28.8506H101.983V25.6035H102.804V28.8506H103.802L106.229 25.6035H107.233L104.499 29.2061L107.568 33H106.522L103.788 29.582ZM111.226 31.8242L113.386 25.6035H114.268L111.109 34.2578L110.945 34.6406C110.54 35.5384 109.913 35.9873 109.065 35.9873C108.869 35.9873 108.66 35.9554 108.437 35.8916L108.43 35.2148L108.854 35.2559C109.255 35.2559 109.578 35.1556 109.824 34.9551C110.075 34.7591 110.287 34.4196 110.46 33.9365L110.822 32.9385L108.033 25.6035H108.929L111.226 31.8242ZM116.373 25.6035V32.3096H119.668V25.6035H120.488V32.3096H123.742V25.6035H124.562V32.3096H125.451L125.39 35.1943H124.638V33H115.553V25.6035H116.373ZM131.638 25.6035H132.458V33H131.638V26.9229L127.646 33H126.832V25.6035H127.646V31.6875L131.638 25.6035ZM136.977 28.6045L138.973 25.6035H139.943L137.435 29.2334L140.053 33H139.089L136.983 29.8691L134.878 33H133.914L136.525 29.2334L134.017 25.6035H134.98L136.977 28.6045ZM149.726 25.6035H150.546V33H149.726V26.9229L145.733 33H144.92V25.6035H145.733V31.6875L149.726 25.6035ZM158.421 33H157.601V29.6094H153.615V33H152.795V25.6035H153.615V28.9189H157.601V25.6035H158.421V33ZM163.35 32.4463C163.919 32.4463 164.396 32.2868 164.778 31.9678C165.166 31.6442 165.375 31.2272 165.407 30.7168H166.193C166.171 31.168 166.029 31.5804 165.77 31.9541C165.51 32.3232 165.163 32.6126 164.73 32.8223C164.302 33.0319 163.842 33.1367 163.35 33.1367C162.379 33.1367 161.609 32.7995 161.039 32.125C160.474 31.4505 160.191 30.5436 160.191 29.4043V29.1582C160.191 28.429 160.319 27.7842 160.574 27.2236C160.829 26.6631 161.194 26.2301 161.668 25.9248C162.146 25.6195 162.705 25.4668 163.343 25.4668C164.154 25.4668 164.822 25.7083 165.346 26.1914C165.874 26.6745 166.157 27.3102 166.193 28.0986H165.407C165.371 27.5199 165.161 27.0527 164.778 26.6973C164.4 26.3418 163.922 26.1641 163.343 26.1641C162.604 26.1641 162.03 26.4307 161.62 26.9639C161.215 27.4971 161.012 28.2445 161.012 29.2061V29.4453C161.012 30.3887 161.215 31.1247 161.62 31.6533C162.03 32.182 162.607 32.4463 163.35 32.4463ZM173.146 26.3008H170.452V33H169.632V26.3008H167.041V25.6035H173.146V26.3008ZM180.439 29.377C180.439 30.5299 180.184 31.446 179.674 32.125C179.163 32.7995 178.48 33.1367 177.623 33.1367C176.611 33.1367 175.837 32.7812 175.299 32.0703V35.8438H174.485V25.6035H175.244L175.285 26.6494C175.818 25.861 176.591 25.4668 177.603 25.4668C178.487 25.4668 179.179 25.8018 179.681 26.4717C180.187 27.1416 180.439 28.0713 180.439 29.2607V29.377ZM179.619 29.2334C179.619 28.29 179.425 27.5449 179.038 26.998C178.651 26.4512 178.111 26.1777 177.418 26.1777C176.917 26.1777 176.486 26.2985 176.126 26.54C175.766 26.7816 175.49 27.1325 175.299 27.5928V31.1406C175.495 31.5645 175.775 31.888 176.14 32.1113C176.504 32.3346 176.935 32.4463 177.432 32.4463C178.12 32.4463 178.655 32.1729 179.038 31.626C179.425 31.0745 179.619 30.277 179.619 29.2334ZM184.521 31.8242L186.681 25.6035H187.562L184.404 34.2578L184.24 34.6406C183.835 35.5384 183.208 35.9873 182.36 35.9873C182.164 35.9873 181.955 35.9554 181.731 35.8916L181.725 35.2148L182.148 35.2559C182.549 35.2559 182.873 35.1556 183.119 34.9551C183.37 34.7591 183.582 34.4196 183.755 33.9365L184.117 32.9385L181.328 25.6035H182.224L184.521 31.8242ZM192.929 31.8926L195.868 25.6035H196.88V33H196.06V26.9297L193.216 33H192.635L189.736 26.793V33H188.923V25.6035H189.996L192.929 31.8926ZM201.938 33.1367C201.31 33.1367 200.74 32.9818 200.229 32.6719C199.724 32.362 199.329 31.9313 199.047 31.3799C198.764 30.8239 198.623 30.2018 198.623 29.5137V29.2197C198.623 28.5088 198.76 27.8685 199.033 27.2988C199.311 26.7292 199.696 26.2826 200.188 25.959C200.681 25.6309 201.214 25.4668 201.788 25.4668C202.686 25.4668 203.397 25.7744 203.921 26.3896C204.45 27.0003 204.714 27.8366 204.714 28.8984V29.3564H199.437V29.5137C199.437 30.3522 199.676 31.0518 200.154 31.6123C200.637 32.1683 201.243 32.4463 201.973 32.4463C202.41 32.4463 202.795 32.3665 203.128 32.207C203.465 32.0475 203.771 31.7923 204.044 31.4414L204.557 31.8311C203.955 32.7015 203.082 33.1367 201.938 33.1367ZM201.788 26.1641C201.173 26.1641 200.653 26.3896 200.229 26.8408C199.81 27.292 199.555 27.8981 199.464 28.6592H203.9V28.5703C203.878 27.8594 203.675 27.2806 203.292 26.834C202.909 26.3874 202.408 26.1641 201.788 26.1641ZM211.987 33H211.167V29.6094H207.182V33H206.361V25.6035H207.182V28.9189H211.167V25.6035H211.987V33ZM219.493 26.3008H216.8V33H215.979V26.3008H213.389V25.6035H219.493V26.3008ZM220.102 29.1924C220.102 28.4814 220.238 27.8411 220.512 27.2715C220.79 26.7018 221.179 26.2598 221.681 25.9453C222.187 25.6263 222.758 25.4668 223.396 25.4668C224.381 25.4668 225.178 25.8132 225.789 26.5059C226.4 27.194 226.705 28.1077 226.705 29.2471V29.418C226.705 30.1335 226.566 30.7783 226.288 31.3525C226.015 31.9222 225.627 32.362 225.126 32.6719C224.625 32.9818 224.053 33.1367 223.41 33.1367C222.43 33.1367 221.633 32.7926 221.018 32.1045C220.407 31.4118 220.102 30.4958 220.102 29.3564V29.1924ZM220.922 29.418C220.922 30.3021 221.15 31.029 221.605 31.5986C222.066 32.1637 222.667 32.4463 223.41 32.4463C224.148 32.4463 224.745 32.1637 225.201 31.5986C225.661 31.029 225.892 30.2793 225.892 29.3496V29.1924C225.892 28.6273 225.787 28.11 225.577 27.6406C225.368 27.1712 225.074 26.8089 224.695 26.5537C224.317 26.2939 223.884 26.1641 223.396 26.1641C222.667 26.1641 222.073 26.4512 221.612 27.0254C221.152 27.5951 220.922 28.3424 220.922 29.2676V29.418ZM228.489 33V25.6035H231.203C232.142 25.6035 232.862 25.7721 233.363 26.1094C233.865 26.4421 234.115 26.932 234.115 27.5791C234.115 27.9482 234.004 28.2786 233.78 28.5703C233.557 28.8574 233.231 29.0671 232.803 29.1992C233.286 29.2904 233.673 29.4977 233.965 29.8213C234.261 30.1449 234.409 30.5208 234.409 30.9492C234.409 31.6009 234.168 32.1068 233.685 32.4668C233.206 32.8223 232.527 33 231.647 33H228.489ZM229.303 29.5957V32.3164H231.675C232.29 32.3164 232.764 32.1979 233.097 31.9609C233.429 31.724 233.596 31.3822 233.596 30.9355C233.596 30.5254 233.429 30.1995 233.097 29.958C232.764 29.7165 232.29 29.5957 231.675 29.5957H229.303ZM229.303 28.9121H231.374C232.659 28.8939 233.302 28.4564 233.302 27.5996C233.302 27.1484 233.124 26.8203 232.769 26.6152C232.418 26.4056 231.896 26.3008 231.203 26.3008H229.303V28.9121Z" fill="#2D2D2D"/>
</g>
</svg>
