<svg width="304" height="42" viewBox="0 0 304 42" fill="none" xmlns="http://www.w3.org/2000/svg">
<path d="M7.55859 23.9824V33H2.28516V7.40625H12.2695C14.1914 7.40625 15.8789 7.75781 17.332 8.46094C18.7969 9.16406 19.9219 10.166 20.707 11.4668C21.4922 12.7559 21.8848 14.2266 21.8848 15.8789C21.8848 18.3867 21.0234 20.3672 19.3008 21.8203C17.5898 23.2617 15.2168 23.9824 12.1816 23.9824H7.55859ZM7.55859 19.7109H12.2695C13.6641 19.7109 14.7246 19.3828 15.4512 18.7266C16.1895 18.0703 16.5586 17.1328 16.5586 15.9141C16.5586 14.6602 16.1895 13.6465 15.4512 12.873C14.7129 12.0996 13.6934 11.7012 12.3926 11.6777H7.55859V19.7109ZM40.9219 21.9082H30.7969V28.7637H42.6797V33H25.5234V7.40625H42.6445V11.6777H30.7969V17.7773H40.9219V21.9082ZM58.3945 14.4551C58.3945 13.4824 58.0137 12.7207 57.252 12.1699C56.4902 11.6074 55.4824 11.3262 54.2285 11.3262C53.1035 11.3262 52.166 11.6074 51.416 12.1699C50.6777 12.7207 50.3086 13.4414 50.3086 14.332H45.0352C45.0352 12.9492 45.4219 11.707 46.1953 10.6055C46.9805 9.49219 48.0879 8.625 49.5176 8.00391C50.959 7.38281 52.5293 7.07227 54.2285 7.07227C57.1816 7.07227 59.4961 7.70508 61.1719 8.9707C62.8477 10.2363 63.6855 12.0293 63.6855 14.3496C63.6855 15.4863 63.3398 16.541 62.6484 17.5137C61.9688 18.4863 60.9961 19.2656 59.7305 19.8516C61.1367 20.3438 62.2148 21.0938 62.9648 22.1016C63.7148 23.0977 64.0898 24.3398 64.0898 25.8281C64.0898 28.125 63.1875 29.9531 61.3828 31.3125C59.5898 32.6602 57.2051 33.334 54.2285 33.334C52.3652 33.334 50.6895 33.0176 49.2012 32.3848C47.7129 31.7402 46.582 30.8672 45.8086 29.7656C45.0469 28.6523 44.666 27.3633 44.666 25.8984H49.9746C49.9746 26.8125 50.373 27.5801 51.1699 28.2012C51.9668 28.8105 52.9863 29.1152 54.2285 29.1152C55.6348 29.1152 56.7422 28.7988 57.5508 28.166C58.3711 27.5332 58.7812 26.7305 58.7812 25.7578C58.7812 24.4219 58.418 23.4668 57.6914 22.8926C56.9648 22.3066 55.9043 22.0137 54.5098 22.0137H51.3633V17.8828H54.6152C57.1348 17.8477 58.3945 16.7051 58.3945 14.4551Z" fill="#2D2D2D"/>
<path d="M78.3852 32.5H83.5V7.5H78.3852L79.9295 8.78194L80.393 9.16667L79.9295 9.55139L77.7828 11.3333L79.9295 13.1153L80.393 13.5L79.9295 13.8847L77.7828 15.6667L79.9295 17.4486L80.393 17.8333L79.9295 18.2181L77.7828 20L79.9295 21.7819L80.393 22.1667L79.9295 22.5514L77.7828 24.3333L79.9295 26.1153L80.393 26.5L79.9295 26.8847L77.7828 28.6667L79.9295 30.4486L80.393 30.8333L79.9295 31.2181L78.3852 32.5Z" fill="#E32140" stroke="#E32140"/>
<path d="M103.306 12.8965C103.192 13.9447 102.816 14.7467 102.178 15.3027C101.544 15.8587 100.699 16.1367 99.6416 16.1367C98.9033 16.1367 98.2493 15.9521 97.6797 15.583C97.1146 15.2139 96.6771 14.6921 96.3672 14.0176C96.0573 13.3385 95.9001 12.5638 95.8955 11.6934V10.4014C95.8955 9.51725 96.0505 8.7334 96.3604 8.0498C96.6702 7.36621 97.1146 6.83984 97.6934 6.4707C98.2767 6.09701 98.9466 5.91016 99.7031 5.91016C100.77 5.91016 101.61 6.19954 102.226 6.77832C102.845 7.35254 103.205 8.14779 103.306 9.16406H102.458C102.248 7.47331 101.33 6.62793 99.7031 6.62793C98.8008 6.62793 98.0807 6.96517 97.543 7.63965C97.0098 8.31413 96.7432 9.24609 96.7432 10.4355V11.6523C96.7432 12.8008 97.0029 13.7168 97.5225 14.4004C98.0465 15.084 98.7529 15.4258 99.6416 15.4258C100.521 15.4258 101.184 15.2161 101.631 14.7969C102.077 14.373 102.353 13.7396 102.458 12.8965H103.306ZM110.839 16H110.019V9.30762H106.033V16H105.213V8.60352H110.839V16ZM115.897 16.1367C115.269 16.1367 114.699 15.9818 114.188 15.6719C113.683 15.362 113.288 14.9313 113.006 14.3799C112.723 13.8239 112.582 13.2018 112.582 12.5137V12.2197C112.582 11.5088 112.719 10.8685 112.992 10.2988C113.27 9.72917 113.655 9.28255 114.147 8.95898C114.64 8.63086 115.173 8.4668 115.747 8.4668C116.645 8.4668 117.356 8.77441 117.88 9.38965C118.409 10.0003 118.673 10.8366 118.673 11.8984V12.3564H113.396V12.5137C113.396 13.3522 113.635 14.0518 114.113 14.6123C114.596 15.1683 115.202 15.4463 115.932 15.4463C116.369 15.4463 116.754 15.3665 117.087 15.207C117.424 15.0475 117.729 14.7923 118.003 14.4414L118.516 14.8311C117.914 15.7015 117.041 16.1367 115.897 16.1367ZM115.747 9.16406C115.132 9.16406 114.612 9.38965 114.188 9.84082C113.769 10.292 113.514 10.8981 113.423 11.6592H117.859V11.5703C117.837 10.8594 117.634 10.2806 117.251 9.83398C116.868 9.38737 116.367 9.16406 115.747 9.16406ZM120.32 8.60352H121.141V15.3096H125.126V8.60352H125.946V15.3096H126.698L126.637 18.1943H125.885V16H120.32V8.60352ZM133.097 8.60352H133.917V16H133.097V9.92285L129.104 16H128.291V8.60352H129.104V14.6875L133.097 8.60352ZM140.78 16C140.698 15.7676 140.646 15.4235 140.623 14.9678C140.336 15.3415 139.969 15.6309 139.522 15.8359C139.08 16.0365 138.611 16.1367 138.114 16.1367C137.403 16.1367 136.827 15.9385 136.385 15.542C135.947 15.1455 135.729 14.6442 135.729 14.0381C135.729 13.318 136.027 12.7484 136.624 12.3291C137.226 11.9098 138.062 11.7002 139.133 11.7002H140.616V10.8594C140.616 10.3307 140.452 9.91602 140.124 9.61523C139.8 9.3099 139.326 9.15723 138.702 9.15723C138.132 9.15723 137.661 9.30306 137.287 9.59473C136.913 9.88639 136.727 10.2373 136.727 10.6475L135.906 10.6406C135.906 10.0527 136.18 9.5446 136.727 9.11621C137.273 8.68327 137.946 8.4668 138.743 8.4668C139.568 8.4668 140.217 8.67415 140.691 9.08887C141.17 9.49902 141.416 10.0732 141.43 10.8115V14.3115C141.43 15.027 141.505 15.5625 141.655 15.918V16H140.78ZM138.21 15.4121C138.757 15.4121 139.244 15.2799 139.673 15.0156C140.106 14.7513 140.42 14.3981 140.616 13.9561V12.3291H139.153C138.338 12.3382 137.7 12.4886 137.239 12.7803C136.779 13.0674 136.549 13.4639 136.549 13.9697C136.549 14.3844 136.701 14.7285 137.007 15.002C137.317 15.2754 137.718 15.4121 138.21 15.4121ZM149.305 8.60352V16H148.484V9.30762H145.456L145.326 12.0762C145.271 13.1016 145.169 13.8854 145.019 14.4277C144.868 14.9655 144.645 15.362 144.349 15.6172C144.052 15.8724 143.658 16 143.166 16H142.852V15.2754L143.104 15.2617C143.574 15.2526 143.911 15.0247 144.116 14.5781C144.321 14.1315 144.456 13.334 144.52 12.1855L144.67 8.60352H149.305ZM156.366 8.60352H157.187V16H156.366V9.92285L152.374 16H151.561V8.60352H152.374V14.6875L156.366 8.60352ZM163.715 10.5586C163.715 10.112 163.549 9.7679 163.216 9.52637C162.883 9.28483 162.425 9.16406 161.842 9.16406C161.313 9.16406 160.86 9.30078 160.481 9.57422C160.108 9.8431 159.921 10.1849 159.921 10.5996H159.107C159.107 9.98438 159.369 9.47624 159.894 9.0752C160.422 8.67415 161.072 8.47363 161.842 8.47363C162.689 8.47363 163.35 8.65592 163.824 9.02051C164.298 9.38509 164.535 9.90234 164.535 10.5723C164.535 10.9277 164.426 11.249 164.207 11.5361C163.988 11.8232 163.669 12.0465 163.25 12.2061C164.198 12.4658 164.672 13.0537 164.672 13.9697C164.672 14.6351 164.414 15.1615 163.899 15.5488C163.384 15.9362 162.701 16.1299 161.849 16.1299C161.024 16.1299 160.34 15.9225 159.798 15.5078C159.256 15.0931 158.984 14.5508 158.984 13.8809H159.805C159.805 14.3275 160.001 14.7012 160.393 15.002C160.789 15.2982 161.274 15.4463 161.849 15.4463C162.473 15.4463 162.961 15.3164 163.312 15.0566C163.667 14.7923 163.845 14.4346 163.845 13.9834C163.845 13.4867 163.683 13.1289 163.359 12.9102C163.036 12.6914 162.541 12.582 161.876 12.582H160.748V11.8711H162.013C163.147 11.8438 163.715 11.4062 163.715 10.5586ZM171.337 8.60352H172.157V16H171.337V9.92285L167.345 16H166.531V8.60352H167.345V14.6875L171.337 8.60352ZM180.299 12.377C180.299 13.5299 180.044 14.446 179.533 15.125C179.023 15.7995 178.339 16.1367 177.482 16.1367C176.471 16.1367 175.696 15.7812 175.158 15.0703V18.8438H174.345V8.60352H175.104L175.145 9.64941C175.678 8.861 176.45 8.4668 177.462 8.4668C178.346 8.4668 179.039 8.80176 179.54 9.47168C180.046 10.1416 180.299 11.0713 180.299 12.2607V12.377ZM179.479 12.2334C179.479 11.29 179.285 10.5449 178.897 9.99805C178.51 9.45117 177.97 9.17773 177.277 9.17773C176.776 9.17773 176.345 9.2985 175.985 9.54004C175.625 9.78158 175.35 10.1325 175.158 10.5928V14.1406C175.354 14.5645 175.634 14.888 175.999 15.1113C176.364 15.3346 176.794 15.4463 177.291 15.4463C177.979 15.4463 178.515 15.1729 178.897 14.626C179.285 14.0745 179.479 13.277 179.479 12.2334ZM181.666 12.1924C181.666 11.4814 181.803 10.8411 182.076 10.2715C182.354 9.70182 182.744 9.25977 183.245 8.94531C183.751 8.6263 184.323 8.4668 184.961 8.4668C185.945 8.4668 186.743 8.81315 187.354 9.50586C187.964 10.194 188.27 11.1077 188.27 12.2471V12.418C188.27 13.1335 188.131 13.7783 187.853 14.3525C187.579 14.9222 187.192 15.362 186.69 15.6719C186.189 15.9818 185.617 16.1367 184.975 16.1367C183.995 16.1367 183.197 15.7926 182.582 15.1045C181.971 14.4118 181.666 13.4958 181.666 12.3564V12.1924ZM182.486 12.418C182.486 13.3021 182.714 14.029 183.17 14.5986C183.63 15.1637 184.232 15.4463 184.975 15.4463C185.713 15.4463 186.31 15.1637 186.766 14.5986C187.226 14.029 187.456 13.2793 187.456 12.3496V12.1924C187.456 11.6273 187.351 11.11 187.142 10.6406C186.932 10.1712 186.638 9.80892 186.26 9.55371C185.882 9.29395 185.449 9.16406 184.961 9.16406C184.232 9.16406 183.637 9.45117 183.177 10.0254C182.716 10.5951 182.486 11.3424 182.486 12.2676V12.418ZM190.054 16V8.60352H192.768C193.706 8.60352 194.426 8.77214 194.928 9.10938C195.429 9.44206 195.68 9.93197 195.68 10.5791C195.68 10.9482 195.568 11.2786 195.345 11.5703C195.121 11.8574 194.796 12.0671 194.367 12.1992C194.85 12.2904 195.238 12.4977 195.529 12.8213C195.826 13.1449 195.974 13.5208 195.974 13.9492C195.974 14.6009 195.732 15.1068 195.249 15.4668C194.771 15.8223 194.091 16 193.212 16H190.054ZM190.867 12.5957V15.3164H193.239C193.854 15.3164 194.328 15.1979 194.661 14.9609C194.994 14.724 195.16 14.3822 195.16 13.9355C195.16 13.5254 194.994 13.1995 194.661 12.958C194.328 12.7165 193.854 12.5957 193.239 12.5957H190.867ZM190.867 11.9121H192.938C194.224 11.8939 194.866 11.4564 194.866 10.5996C194.866 10.1484 194.688 9.82031 194.333 9.61523C193.982 9.4056 193.46 9.30078 192.768 9.30078H190.867V11.9121ZM202.468 16C202.386 15.7676 202.333 15.4235 202.311 14.9678C202.023 15.3415 201.657 15.6309 201.21 15.8359C200.768 16.0365 200.299 16.1367 199.802 16.1367C199.091 16.1367 198.514 15.9385 198.072 15.542C197.635 15.1455 197.416 14.6442 197.416 14.0381C197.416 13.318 197.715 12.7484 198.312 12.3291C198.913 11.9098 199.749 11.7002 200.82 11.7002H202.304V10.8594C202.304 10.3307 202.14 9.91602 201.812 9.61523C201.488 9.3099 201.014 9.15723 200.39 9.15723C199.82 9.15723 199.348 9.30306 198.975 9.59473C198.601 9.88639 198.414 10.2373 198.414 10.6475L197.594 10.6406C197.594 10.0527 197.867 9.5446 198.414 9.11621C198.961 8.68327 199.633 8.4668 200.431 8.4668C201.256 8.4668 201.905 8.67415 202.379 9.08887C202.857 9.49902 203.104 10.0732 203.117 10.8115V14.3115C203.117 15.027 203.192 15.5625 203.343 15.918V16H202.468ZM199.897 15.4121C200.444 15.4121 200.932 15.2799 201.36 15.0156C201.793 14.7513 202.108 14.3981 202.304 13.9561V12.3291H200.841C200.025 12.3382 199.387 12.4886 198.927 12.7803C198.466 13.0674 198.236 13.4639 198.236 13.9697C198.236 14.3844 198.389 14.7285 198.694 15.002C199.004 15.2754 199.405 15.4121 199.897 15.4121ZM210.985 16H210.165V12.6094H206.18V16H205.359V8.60352H206.18V11.9189H210.165V8.60352H210.985V16ZM218.86 16H218.04V12.6094H214.055V16H213.234V8.60352H214.055V11.9189H218.04V8.60352H218.86V16ZM221.957 11.29H224.09C224.637 11.29 225.115 11.3903 225.525 11.5908C225.94 11.7868 226.252 12.0602 226.462 12.4111C226.676 12.762 226.783 13.1699 226.783 13.6348C226.783 14.3503 226.537 14.9245 226.045 15.3574C225.557 15.7858 224.896 16 224.062 16H221.144V8.60352H221.957V11.29ZM221.957 11.9873V15.3096H224.076C224.664 15.3096 225.124 15.1615 225.457 14.8652C225.794 14.569 225.963 14.1634 225.963 13.6484C225.963 13.1562 225.799 12.7598 225.471 12.459C225.147 12.1536 224.703 11.9964 224.138 11.9873H221.957ZM229.292 16H228.472V8.60352H229.292V16ZM236.429 8.60352H237.249V16H236.429V9.92285L232.437 16H231.623V8.60352H232.437V14.6875L236.429 8.60352ZM236.388 5.9375C236.388 6.46159 236.208 6.88542 235.848 7.20898C235.492 7.53255 235.014 7.69434 234.412 7.69434C233.82 7.69434 233.341 7.53483 232.977 7.21582C232.617 6.89225 232.437 6.46615 232.437 5.9375H233.134C233.134 6.31576 233.245 6.60514 233.469 6.80566C233.697 7.00618 234.011 7.10645 234.412 7.10645C234.813 7.10645 235.125 7.00163 235.349 6.79199C235.576 6.58236 235.69 6.29753 235.69 5.9375H236.388ZM246.942 14.8926L249.882 8.60352H250.894V16H250.073V9.92969L247.229 16H246.648L243.75 9.79297V16H242.937V8.60352H244.01L246.942 14.8926ZM257.757 16C257.675 15.7676 257.622 15.4235 257.6 14.9678C257.312 15.3415 256.946 15.6309 256.499 15.8359C256.057 16.0365 255.588 16.1367 255.091 16.1367C254.38 16.1367 253.803 15.9385 253.361 15.542C252.924 15.1455 252.705 14.6442 252.705 14.0381C252.705 13.318 253.004 12.7484 253.601 12.3291C254.202 11.9098 255.038 11.7002 256.109 11.7002H257.593V10.8594C257.593 10.3307 257.429 9.91602 257.101 9.61523C256.777 9.3099 256.303 9.15723 255.679 9.15723C255.109 9.15723 254.637 9.30306 254.264 9.59473C253.89 9.88639 253.703 10.2373 253.703 10.6475L252.883 10.6406C252.883 10.0527 253.156 9.5446 253.703 9.11621C254.25 8.68327 254.922 8.4668 255.72 8.4668C256.545 8.4668 257.194 8.67415 257.668 9.08887C258.146 9.49902 258.393 10.0732 258.406 10.8115V14.3115C258.406 15.027 258.481 15.5625 258.632 15.918V16H257.757ZM255.187 15.4121C255.733 15.4121 256.221 15.2799 256.649 15.0156C257.082 14.7513 257.397 14.3981 257.593 13.9561V12.3291H256.13C255.314 12.3382 254.676 12.4886 254.216 12.7803C253.756 13.0674 253.525 13.4639 253.525 13.9697C253.525 14.3844 253.678 14.7285 253.983 15.002C254.293 15.2754 254.694 15.4121 255.187 15.4121ZM265.201 9.30762H261.462V16H260.642V8.60352H265.201V9.30762ZM271.169 16C271.087 15.7676 271.035 15.4235 271.012 14.9678C270.725 15.3415 270.358 15.6309 269.911 15.8359C269.469 16.0365 269 16.1367 268.503 16.1367C267.792 16.1367 267.215 15.9385 266.773 15.542C266.336 15.1455 266.117 14.6442 266.117 14.0381C266.117 13.318 266.416 12.7484 267.013 12.3291C267.614 11.9098 268.451 11.7002 269.521 11.7002H271.005V10.8594C271.005 10.3307 270.841 9.91602 270.513 9.61523C270.189 9.3099 269.715 9.15723 269.091 9.15723C268.521 9.15723 268.049 9.30306 267.676 9.59473C267.302 9.88639 267.115 10.2373 267.115 10.6475L266.295 10.6406C266.295 10.0527 266.568 9.5446 267.115 9.11621C267.662 8.68327 268.334 8.4668 269.132 8.4668C269.957 8.4668 270.606 8.67415 271.08 9.08887C271.559 9.49902 271.805 10.0732 271.818 10.8115V14.3115C271.818 15.027 271.894 15.5625 272.044 15.918V16H271.169ZM268.599 15.4121C269.146 15.4121 269.633 15.2799 270.062 15.0156C270.494 14.7513 270.809 14.3981 271.005 13.9561V12.3291H269.542C268.726 12.3382 268.088 12.4886 267.628 12.7803C267.168 13.0674 266.938 13.4639 266.938 13.9697C266.938 14.3844 267.09 14.7285 267.396 15.002C267.705 15.2754 268.106 15.4121 268.599 15.4121ZM278.34 10.5586C278.34 10.112 278.174 9.7679 277.841 9.52637C277.508 9.28483 277.05 9.16406 276.467 9.16406C275.938 9.16406 275.485 9.30078 275.106 9.57422C274.733 9.8431 274.546 10.1849 274.546 10.5996H273.732C273.732 9.98438 273.994 9.47624 274.519 9.0752C275.047 8.67415 275.697 8.47363 276.467 8.47363C277.314 8.47363 277.975 8.65592 278.449 9.02051C278.923 9.38509 279.16 9.90234 279.16 10.5723C279.16 10.9277 279.051 11.249 278.832 11.5361C278.613 11.8232 278.294 12.0465 277.875 12.2061C278.823 12.4658 279.297 13.0537 279.297 13.9697C279.297 14.6351 279.039 15.1615 278.524 15.5488C278.009 15.9362 277.326 16.1299 276.474 16.1299C275.649 16.1299 274.965 15.9225 274.423 15.5078C273.881 15.0931 273.609 14.5508 273.609 13.8809H274.43C274.43 14.3275 274.626 14.7012 275.018 15.002C275.414 15.2982 275.899 15.4463 276.474 15.4463C277.098 15.4463 277.586 15.3164 277.937 15.0566C278.292 14.7923 278.47 14.4346 278.47 13.9834C278.47 13.4867 278.308 13.1289 277.984 12.9102C277.661 12.6914 277.166 12.582 276.501 12.582H275.373V11.8711H276.638C277.772 11.8438 278.34 11.4062 278.34 10.5586ZM285.962 8.60352H286.782V16H285.962V9.92285L281.97 16H281.156V8.60352H281.97V14.6875L285.962 8.60352ZM294.657 16H293.837V12.6094H289.852V16H289.031V8.60352H289.852V11.9189H293.837V8.60352H294.657V16ZM100.161 31.8926L103.101 25.6035H104.112V33H103.292V26.9297L100.448 33H99.8672L96.9688 26.793V33H96.1553V25.6035H97.2285L100.161 31.8926ZM109.171 33.1367C108.542 33.1367 107.972 32.9818 107.462 32.6719C106.956 32.362 106.562 31.9313 106.279 31.3799C105.997 30.8239 105.855 30.2018 105.855 29.5137V29.2197C105.855 28.5088 105.992 27.8685 106.266 27.2988C106.544 26.7292 106.929 26.2826 107.421 25.959C107.913 25.6309 108.446 25.4668 109.021 25.4668C109.918 25.4668 110.629 25.7744 111.153 26.3896C111.682 27.0003 111.946 27.8366 111.946 28.8984V29.3564H106.669V29.5137C106.669 30.3522 106.908 31.0518 107.387 31.6123C107.87 32.1683 108.476 32.4463 109.205 32.4463C109.643 32.4463 110.028 32.3665 110.36 32.207C110.698 32.0475 111.003 31.7923 111.276 31.4414L111.789 31.8311C111.188 32.7015 110.315 33.1367 109.171 33.1367ZM109.021 26.1641C108.405 26.1641 107.886 26.3896 107.462 26.8408C107.043 27.292 106.787 27.8981 106.696 28.6592H111.133V28.5703C111.11 27.8594 110.907 27.2806 110.524 26.834C110.142 26.3874 109.64 26.1641 109.021 26.1641ZM118.769 26.3008H116.075V33H115.255V26.3008H112.664V25.6035H118.769V26.3008ZM124.675 33C124.593 32.7676 124.54 32.4235 124.518 31.9678C124.23 32.3415 123.864 32.6309 123.417 32.8359C122.975 33.0365 122.506 33.1367 122.009 33.1367C121.298 33.1367 120.721 32.9385 120.279 32.542C119.842 32.1455 119.623 31.6442 119.623 31.0381C119.623 30.318 119.922 29.7484 120.519 29.3291C121.12 28.9098 121.956 28.7002 123.027 28.7002H124.511V27.8594C124.511 27.3307 124.347 26.916 124.019 26.6152C123.695 26.3099 123.221 26.1572 122.597 26.1572C122.027 26.1572 121.555 26.3031 121.182 26.5947C120.808 26.8864 120.621 27.2373 120.621 27.6475L119.801 27.6406C119.801 27.0527 120.074 26.5446 120.621 26.1162C121.168 25.6833 121.84 25.4668 122.638 25.4668C123.463 25.4668 124.112 25.6742 124.586 26.0889C125.064 26.499 125.311 27.0732 125.324 27.8115V31.3115C125.324 32.027 125.399 32.5625 125.55 32.918V33H124.675ZM122.104 32.4121C122.651 32.4121 123.139 32.2799 123.567 32.0156C124 31.7513 124.315 31.3981 124.511 30.9561V29.3291H123.048C122.232 29.3382 121.594 29.4886 121.134 29.7803C120.674 30.0674 120.443 30.4639 120.443 30.9697C120.443 31.3844 120.596 31.7285 120.901 32.002C121.211 32.2754 121.612 32.4121 122.104 32.4121ZM133.199 25.6035V33H132.379V26.3076H129.351L129.221 29.0762C129.166 30.1016 129.063 30.8854 128.913 31.4277C128.763 31.9655 128.539 32.362 128.243 32.6172C127.947 32.8724 127.553 33 127.061 33H126.746V32.2754L126.999 32.2617C127.468 32.2526 127.806 32.0247 128.011 31.5781C128.216 31.1315 128.35 30.334 128.414 29.1855L128.564 25.6035H133.199ZM141.088 25.6035V33H140.268V26.3076H137.239L137.109 29.0762C137.055 30.1016 136.952 30.8854 136.802 31.4277C136.651 31.9655 136.428 32.362 136.132 32.6172C135.836 32.8724 135.441 33 134.949 33H134.635V32.2754L134.888 32.2617C135.357 32.2526 135.694 32.0247 135.899 31.5781C136.104 31.1315 136.239 30.334 136.303 29.1855L136.453 25.6035H141.088ZM142.838 29.1924C142.838 28.4814 142.975 27.8411 143.248 27.2715C143.526 26.7018 143.916 26.2598 144.417 25.9453C144.923 25.6263 145.495 25.4668 146.133 25.4668C147.117 25.4668 147.915 25.8132 148.525 26.5059C149.136 27.194 149.441 28.1077 149.441 29.2471V29.418C149.441 30.1335 149.302 30.7783 149.024 31.3525C148.751 31.9222 148.364 32.362 147.862 32.6719C147.361 32.9818 146.789 33.1367 146.146 33.1367C145.167 33.1367 144.369 32.7926 143.754 32.1045C143.143 31.4118 142.838 30.4958 142.838 29.3564V29.1924ZM143.658 29.418C143.658 30.3021 143.886 31.029 144.342 31.5986C144.802 32.1637 145.404 32.4463 146.146 32.4463C146.885 32.4463 147.482 32.1637 147.938 31.5986C148.398 31.029 148.628 30.2793 148.628 29.3496V29.1924C148.628 28.6273 148.523 28.11 148.313 27.6406C148.104 27.1712 147.81 26.8089 147.432 26.5537C147.053 26.2939 146.62 26.1641 146.133 26.1641C145.404 26.1641 144.809 26.4512 144.349 27.0254C143.888 27.5951 143.658 28.3424 143.658 29.2676V29.418ZM157.084 29.377C157.084 30.5299 156.829 31.446 156.318 32.125C155.808 32.7995 155.124 33.1367 154.268 33.1367C153.256 33.1367 152.481 32.7812 151.943 32.0703V35.8438H151.13V25.6035H151.889L151.93 26.6494C152.463 25.861 153.235 25.4668 154.247 25.4668C155.131 25.4668 155.824 25.8018 156.325 26.4717C156.831 27.1416 157.084 28.0713 157.084 29.2607V29.377ZM156.264 29.2334C156.264 28.29 156.07 27.5449 155.683 26.998C155.295 26.4512 154.755 26.1777 154.062 26.1777C153.561 26.1777 153.131 26.2985 152.771 26.54C152.41 26.7816 152.135 27.1325 151.943 27.5928V31.1406C152.139 31.5645 152.42 31.888 152.784 32.1113C153.149 32.3346 153.579 32.4463 154.076 32.4463C154.764 32.4463 155.3 32.1729 155.683 31.626C156.07 31.0745 156.264 30.277 156.264 29.2334ZM161.767 33.1367C161.138 33.1367 160.568 32.9818 160.058 32.6719C159.552 32.362 159.158 31.9313 158.875 31.3799C158.592 30.8239 158.451 30.2018 158.451 29.5137V29.2197C158.451 28.5088 158.588 27.8685 158.861 27.2988C159.139 26.7292 159.524 26.2826 160.017 25.959C160.509 25.6309 161.042 25.4668 161.616 25.4668C162.514 25.4668 163.225 25.7744 163.749 26.3896C164.278 27.0003 164.542 27.8366 164.542 28.8984V29.3564H159.265V29.5137C159.265 30.3522 159.504 31.0518 159.982 31.6123C160.465 32.1683 161.072 32.4463 161.801 32.4463C162.238 32.4463 162.623 32.3665 162.956 32.207C163.293 32.0475 163.599 31.7923 163.872 31.4414L164.385 31.8311C163.783 32.7015 162.91 33.1367 161.767 33.1367ZM161.616 26.1641C161.001 26.1641 160.481 26.3896 160.058 26.8408C159.638 27.292 159.383 27.8981 159.292 28.6592H163.729V28.5703C163.706 27.8594 163.503 27.2806 163.12 26.834C162.737 26.3874 162.236 26.1641 161.616 26.1641ZM171.788 29.582H170.804V33H169.983V29.582H169.006L166.271 33H165.232L168.295 29.2061L165.574 25.6035H166.565L168.992 28.8506H169.983V25.6035H170.804V28.8506H171.802L174.229 25.6035H175.233L172.499 29.2061L175.568 33H174.522L171.788 29.582ZM179.226 31.8242L181.386 25.6035H182.268L179.109 34.2578L178.945 34.6406C178.54 35.5384 177.913 35.9873 177.065 35.9873C176.869 35.9873 176.66 35.9554 176.437 35.8916L176.43 35.2148L176.854 35.2559C177.255 35.2559 177.578 35.1556 177.824 34.9551C178.075 34.7591 178.287 34.4196 178.46 33.9365L178.822 32.9385L176.033 25.6035H176.929L179.226 31.8242ZM184.373 25.6035V32.3096H187.668V25.6035H188.488V32.3096H191.742V25.6035H192.562V32.3096H193.451L193.39 35.1943H192.638V33H183.553V25.6035H184.373ZM199.638 25.6035H200.458V33H199.638V26.9229L195.646 33H194.832V25.6035H195.646V31.6875L199.638 25.6035ZM204.977 28.6045L206.973 25.6035H207.943L205.435 29.2334L208.053 33H207.089L204.983 29.8691L202.878 33H201.914L204.525 29.2334L202.017 25.6035H202.98L204.977 28.6045ZM217.726 25.6035H218.546V33H217.726V26.9229L213.733 33H212.92V25.6035H213.733V31.6875L217.726 25.6035ZM226.421 33H225.601V29.6094H221.615V33H220.795V25.6035H221.615V28.9189H225.601V25.6035H226.421V33ZM231.35 32.4463C231.919 32.4463 232.396 32.2868 232.778 31.9678C233.166 31.6442 233.375 31.2272 233.407 30.7168H234.193C234.171 31.168 234.029 31.5804 233.77 31.9541C233.51 32.3232 233.163 32.6126 232.73 32.8223C232.302 33.0319 231.842 33.1367 231.35 33.1367C230.379 33.1367 229.609 32.7995 229.039 32.125C228.474 31.4505 228.191 30.5436 228.191 29.4043V29.1582C228.191 28.429 228.319 27.7842 228.574 27.2236C228.829 26.6631 229.194 26.2301 229.668 25.9248C230.146 25.6195 230.705 25.4668 231.343 25.4668C232.154 25.4668 232.822 25.7083 233.346 26.1914C233.874 26.6745 234.157 27.3102 234.193 28.0986H233.407C233.371 27.5199 233.161 27.0527 232.778 26.6973C232.4 26.3418 231.922 26.1641 231.343 26.1641C230.604 26.1641 230.03 26.4307 229.62 26.9639C229.215 27.4971 229.012 28.2445 229.012 29.2061V29.4453C229.012 30.3887 229.215 31.1247 229.62 31.6533C230.03 32.182 230.607 32.4463 231.35 32.4463ZM241.146 26.3008H238.452V33H237.632V26.3008H235.041V25.6035H241.146V26.3008ZM248.439 29.377C248.439 30.5299 248.184 31.446 247.674 32.125C247.163 32.7995 246.48 33.1367 245.623 33.1367C244.611 33.1367 243.837 32.7812 243.299 32.0703V35.8438H242.485V25.6035H243.244L243.285 26.6494C243.818 25.861 244.591 25.4668 245.603 25.4668C246.487 25.4668 247.179 25.8018 247.681 26.4717C248.187 27.1416 248.439 28.0713 248.439 29.2607V29.377ZM247.619 29.2334C247.619 28.29 247.425 27.5449 247.038 26.998C246.651 26.4512 246.111 26.1777 245.418 26.1777C244.917 26.1777 244.486 26.2985 244.126 26.54C243.766 26.7816 243.49 27.1325 243.299 27.5928V31.1406C243.495 31.5645 243.775 31.888 244.14 32.1113C244.504 32.3346 244.935 32.4463 245.432 32.4463C246.12 32.4463 246.655 32.1729 247.038 31.626C247.425 31.0745 247.619 30.277 247.619 29.2334ZM252.521 31.8242L254.681 25.6035H255.562L252.404 34.2578L252.24 34.6406C251.835 35.5384 251.208 35.9873 250.36 35.9873C250.164 35.9873 249.955 35.9554 249.731 35.8916L249.725 35.2148L250.148 35.2559C250.549 35.2559 250.873 35.1556 251.119 34.9551C251.37 34.7591 251.582 34.4196 251.755 33.9365L252.117 32.9385L249.328 25.6035H250.224L252.521 31.8242ZM260.929 31.8926L263.868 25.6035H264.88V33H264.06V26.9297L261.216 33H260.635L257.736 26.793V33H256.923V25.6035H257.996L260.929 31.8926ZM269.938 33.1367C269.31 33.1367 268.74 32.9818 268.229 32.6719C267.724 32.362 267.329 31.9313 267.047 31.3799C266.764 30.8239 266.623 30.2018 266.623 29.5137V29.2197C266.623 28.5088 266.76 27.8685 267.033 27.2988C267.311 26.7292 267.696 26.2826 268.188 25.959C268.681 25.6309 269.214 25.4668 269.788 25.4668C270.686 25.4668 271.397 25.7744 271.921 26.3896C272.45 27.0003 272.714 27.8366 272.714 28.8984V29.3564H267.437V29.5137C267.437 30.3522 267.676 31.0518 268.154 31.6123C268.637 32.1683 269.243 32.4463 269.973 32.4463C270.41 32.4463 270.795 32.3665 271.128 32.207C271.465 32.0475 271.771 31.7923 272.044 31.4414L272.557 31.8311C271.955 32.7015 271.082 33.1367 269.938 33.1367ZM269.788 26.1641C269.173 26.1641 268.653 26.3896 268.229 26.8408C267.81 27.292 267.555 27.8981 267.464 28.6592H271.9V28.5703C271.878 27.8594 271.675 27.2806 271.292 26.834C270.909 26.3874 270.408 26.1641 269.788 26.1641ZM279.987 33H279.167V29.6094H275.182V33H274.361V25.6035H275.182V28.9189H279.167V25.6035H279.987V33ZM287.493 26.3008H284.8V33H283.979V26.3008H281.389V25.6035H287.493V26.3008ZM288.102 29.1924C288.102 28.4814 288.238 27.8411 288.512 27.2715C288.79 26.7018 289.179 26.2598 289.681 25.9453C290.187 25.6263 290.758 25.4668 291.396 25.4668C292.381 25.4668 293.178 25.8132 293.789 26.5059C294.4 27.194 294.705 28.1077 294.705 29.2471V29.418C294.705 30.1335 294.566 30.7783 294.288 31.3525C294.015 31.9222 293.627 32.362 293.126 32.6719C292.625 32.9818 292.053 33.1367 291.41 33.1367C290.43 33.1367 289.633 32.7926 289.018 32.1045C288.407 31.4118 288.102 30.4958 288.102 29.3564V29.1924ZM288.922 29.418C288.922 30.3021 289.15 31.029 289.605 31.5986C290.066 32.1637 290.667 32.4463 291.41 32.4463C292.148 32.4463 292.745 32.1637 293.201 31.5986C293.661 31.029 293.892 30.2793 293.892 29.3496V29.1924C293.892 28.6273 293.787 28.11 293.577 27.6406C293.368 27.1712 293.074 26.8089 292.695 26.5537C292.317 26.2939 291.884 26.1641 291.396 26.1641C290.667 26.1641 290.073 26.4512 289.612 27.0254C289.152 27.5951 288.922 28.3424 288.922 29.2676V29.418ZM296.489 33V25.6035H299.203C300.142 25.6035 300.862 25.7721 301.363 26.1094C301.865 26.4421 302.115 26.932 302.115 27.5791C302.115 27.9482 302.004 28.2786 301.78 28.5703C301.557 28.8574 301.231 29.0671 300.803 29.1992C301.286 29.2904 301.673 29.4977 301.965 29.8213C302.261 30.1449 302.409 30.5208 302.409 30.9492C302.409 31.6009 302.168 32.1068 301.685 32.4668C301.206 32.8223 300.527 33 299.647 33H296.489ZM297.303 29.5957V32.3164H299.675C300.29 32.3164 300.764 32.1979 301.097 31.9609C301.429 31.724 301.596 31.3822 301.596 30.9355C301.596 30.5254 301.429 30.1995 301.097 29.958C300.764 29.7165 300.29 29.5957 299.675 29.5957H297.303ZM297.303 28.9121H299.374C300.659 28.8939 301.302 28.4564 301.302 27.5996C301.302 27.1484 301.124 26.8203 300.769 26.6152C300.418 26.4056 299.896 26.3008 299.203 26.3008H297.303V28.9121Z" fill="#2D2D2D"/>
</svg>
